# xmcd CD database file
#
# Track frame offsets:
#	182
#	30180
#	69257
#	104492
#	132860
#	160717
#	188762
#	231740
#
# Disc length: 3333 seconds
#
# Revision: 0
# Processed by: cddbd v1.4PL0 Copyright (c) Steve Scherf et al.
# Submitted via: CDex 1.50Beta7
#
DISCID=610d0308
DTITLE=Yara - Waiting for the big rain
DYEAR=1900
DGENRE=New Age
TTITLE0=Walking under purple skies
TTITLE1=Manijou
TTITLE2=Elephant's Dream
TTITLE3=Dancing Frog
TTITLE4=Waiting for the big Rain
TTITLE5=April in Benares
TTITLE6=Higher Spirits
TTITLE7=Seven Steps to Heaven
EXTD=
EXTT0=
EXTT1=
EXTT2=
EXTT3=
EXTT4=
EXTT5=
EXTT6=
EXTT7=
PLAYORDER=
